<?xml version="1.0" encoding="UTF-8" standalone="no"?>
<svg
   height="256"
   width="256"
   version="1.1"
   id="svg4"
   sodipodi:docname="dock-widgets.svg"
   inkscape:version="1.1.1 (1:1.1+202109281949+c3084ef5ed)"
   inkscape:export-filename="sermon-vdev-icon.png"
   inkscape:export-xdpi="90"
   inkscape:export-ydpi="90"
   xmlns:inkscape="http://www.inkscape.org/namespaces/inkscape"
   xmlns:sodipodi="http://sodipodi.sourceforge.net/DTD/sodipodi-0.dtd"
   xmlns="http://www.w3.org/2000/svg"
   xmlns:svg="http://www.w3.org/2000/svg">
  <defs
     id="defs8" />
  <sodipodi:namedview
     id="namedview6"
     pagecolor="#505050"
     bordercolor="#eeeeee"
     borderopacity="1"
     inkscape:pageshadow="0"
     inkscape:pageopacity="0"
     inkscape:pagecheckerboard="0"
     showgrid="false"
     inkscape:zoom="1.4042969"
     inkscape:cx="67.293462"
     inkscape:cy="118.92072"
     inkscape:window-width="1920"
     inkscape:window-height="1043"
     inkscape:window-x="0"
     inkscape:window-y="0"
     inkscape:window-maximized="1"
     inkscape:current-layer="svg4"
     fit-margin-top="0"
     fit-margin-left="0"
     fit-margin-right="0"
     fit-margin-bottom="0" />
  <g
     id="g1182"
     transform="translate(-14.463668,-11.727859)">
    <path
       id="rect847"
       style="fill:none;stroke:#808080;stroke-width:11.2539"
       d="M 124.83708,214.39092 H 61.856704 c -9.050847,0 -16.337274,-7.29195 -16.337274,-16.34968 V 61.867727 c 0,-9.057725 7.286427,-16.349683 16.337274,-16.349683 v 0 H 197.92683 c 9.05085,0 16.33727,7.291958 16.33727,16.349683 v 57.630723" />
    <path
       id="rect3314"
       style="fill:#808080;stroke-width:12.8616"
       d="M 49.333214,50.782339 H 212.17304 V 70.913913 H 49.333214 Z" />
    <g
       id="g827"
       transform="matrix(8.5714286,0,0,8.5714286,-49.550488,95.233261)">
      <path
         id="rect823"
         style="fill:none;stroke:#808080;stroke-width:0.875"
         d="m 22.076507,3.2761593 h 10.583566 c 0.703977,0 1.270717,0.5667396 1.270717,1.2707167 v 10.583567 c 0,0.703977 -0.56674,1.270716 -1.270717,1.270716 H 22.076507 c -0.703977,0 -1.270717,-0.566739 -1.270717,-1.270716 V 4.546876 c 0,-0.7039771 0.56674,-1.2707167 1.270717,-1.2707167 z" />
      <path
         id="rect825"
         style="fill:#808080"
         d="m 21.102427,3.6853065 h 12.66572 v 1.5646498 h -12.66572 z" />
    </g>
  </g>
</svg>
