<?xml version="1.0" encoding="utf-8"?>
<!-- Generator: Adobe Illustrator 28.3.0, SVG Export Plug-In . SVG Version: 6.00 Build 0)  -->
<svg version="1.1" id="Layer_1" xmlns="http://www.w3.org/2000/svg" xmlns:xlink="http://www.w3.org/1999/xlink" x="0px" y="0px"
	 viewBox="0 0 16 16" style="enable-background:new 0 0 16 16;" xml:space="preserve">
<style type="text/css">
	.st0{fill-rule:evenodd;clip-rule:evenodd;fill:#FFFFFF;}
</style>
<path class="st0" d="M6.4,13.5c0,0.3,0.2,0.5,0.5,0.5h6.6c0.8,0,1.5-0.7,1.5-1.5v-10C15,1.7,14.3,1,13.5,1h-10C2.7,1,2,1.7,2,2.5
	v6.6c0,0.3,0.2,0.5,0.5,0.5S3,9.4,3,9.1V2.5C3,2.2,3.2,2,3.5,2h10C13.8,2,14,2.2,14,2.5v10c0,0.3-0.2,0.5-0.5,0.5H6.9
	C6.6,13,6.4,13.2,6.4,13.5"/>
<path class="st0" d="M11,5.5C11,5.2,10.8,5,10.5,5h-5C5.2,5,5,5.2,5,5.5S5.2,6,5.5,6h3.8l-8.1,8.1c-0.2,0.2-0.2,0.5,0,0.7
	s0.5,0.2,0.7,0l0,0L10,6.7v3.8c0,0.3,0.2,0.5,0.5,0.5s0.5-0.2,0.5-0.5V5.5z"/>
</svg>
