<?xml version="1.0" encoding="utf-8"?>
<!-- Generator: Adobe Illustrator 28.3.0, SVG Export Plug-In . SVG Version: 6.00 Build 0)  -->
<svg version="1.1"
	 id="svg4874" xmlns:dc="http://purl.org/dc/elements/1.1/" xmlns:cc="http://creativecommons.org/ns#" xmlns:rdf="http://www.w3.org/1999/02/22-rdf-syntax-ns#" xmlns:svg="http://www.w3.org/2000/svg" xmlns:sodipodi="http://sodipodi.sourceforge.net/DTD/sodipodi-0.dtd" xmlns:inkscape="http://www.inkscape.org/namespaces/inkscape"
	 xmlns="http://www.w3.org/2000/svg" xmlns:xlink="http://www.w3.org/1999/xlink" x="0px" y="0px" viewBox="0 0 96 96"
	 style="enable-background:new 0 0 96 96;" xml:space="preserve">
<style type="text/css">
	.st0{fill:#FFFFFF;}
</style>
<sodipodi:namedview  bordercolor="#666666" borderopacity="1.0" fit-margin-bottom="0" fit-margin-left="0" fit-margin-right="0" fit-margin-top="0" id="base" inkscape:bbox-nodes="true" inkscape:bbox-paths="true" inkscape:current-layer="g4780" inkscape:cx="-0.42704632" inkscape:cy="57.081859" inkscape:deskcolor="#d1d1d1" inkscape:document-units="px" inkscape:guide-bbox="true" inkscape:object-nodes="true" inkscape:object-paths="true" inkscape:pagecheckerboard="0" inkscape:pageopacity="0.0" inkscape:pageshadow="2" inkscape:showpageshadow="0" inkscape:snap-bbox="true" inkscape:snap-bbox-edge-midpoints="true" inkscape:snap-bbox-midpoints="true" inkscape:snap-center="true" inkscape:snap-global="true" inkscape:snap-intersection-paths="true" inkscape:snap-midpoints="true" inkscape:snap-object-midpoints="true" inkscape:snap-smooth-nodes="true" inkscape:window-height="1027" inkscape:window-maximized="1" inkscape:window-width="1864" inkscape:window-x="0" inkscape:window-y="27" inkscape:zoom="3.5124995" pagecolor="#ffffff" showborder="true" showgrid="true" showguides="true">
	<inkscape:grid  empspacing="8" id="grid5451" type="xygrid"></inkscape:grid>
	<sodipodi:guide  id="guide4063" inkscape:locked="false" orientation="1,0" position="8,-8.0000001"></sodipodi:guide>
	<sodipodi:guide  id="guide4065" inkscape:locked="false" orientation="1,0" position="4,-8.0000001"></sodipodi:guide>
	<sodipodi:guide  id="guide4067" inkscape:locked="false" orientation="0,1" position="-8,88.000001"></sodipodi:guide>
	<sodipodi:guide  id="guide4069" inkscape:locked="false" orientation="0,1" position="-8,92.000001"></sodipodi:guide>
	<sodipodi:guide  id="guide4071" inkscape:locked="false" orientation="0,1" position="104,4"></sodipodi:guide>
	<sodipodi:guide  id="guide4073" inkscape:locked="false" orientation="0,1" position="-5,8.0000001"></sodipodi:guide>
	<sodipodi:guide  id="guide4077" inkscape:locked="false" orientation="1,0" position="88,-8.0000001"></sodipodi:guide>
	<sodipodi:guide  id="guide4074" inkscape:locked="false" orientation="0,1" position="-8,84.000001"></sodipodi:guide>
	<sodipodi:guide  id="guide4076" inkscape:locked="false" orientation="1,0" position="12,-8.0000001"></sodipodi:guide>
	<sodipodi:guide  id="guide4080" inkscape:locked="false" orientation="1,0" position="84,-8.0000001"></sodipodi:guide>
	<sodipodi:guide  id="guide4170" inkscape:locked="false" orientation="1,0" position="48,42.102926"></sodipodi:guide>
	<sodipodi:guide  id="guide4172" inkscape:locked="false" orientation="0,1" position="-8,48"></sodipodi:guide>
	<sodipodi:guide  id="guide4760" inkscape:locked="false" orientation="1,0" position="92,-8.0000001"></sodipodi:guide>
</sodipodi:namedview>
<g id="layer1" transform="translate(67.857146,-78.50504)" inkscape:groupmode="layer" inkscape:label="Layer 1">
	<g id="g4845" transform="matrix(0,-1,-1,0,373.50506,516.50504)">
		
			<g id="g4778" transform="matrix(-0.9996045,0,0,1,575.94296,-611.00001)" inkscape:export-filename="next01.png" inkscape:export-xdpi="90" inkscape:export-ydpi="90" inkscape:label="Layer 1">
			<g id="g4780" transform="matrix(-1,0,0,1,575.99999,611)">
				
					<rect id="rect4782" x="342" y="441.4" transform="matrix(-2.535182e-06 -1 1 -2.535182e-06 -3.3777 783.3467)" class="st0" width="96" height="-96"/>
				
					<rect id="rect332" x="383.7" y="399.1" transform="matrix(-2.535182e-06 -1 1 -2.535182e-06 5.3466 800.0316)" class="st0" width="37.9" height="-3.5"/>
				<path id="path207" class="st0" d="M424.8,413.3c-0.1,6.3,0.1,10.8-1.9,14.6c-1.1,1.9-2.9,3.4-5,4.2c-2.2,0.8-4.8,1.1-8,1.1
					h-39.8c-3.3,0-5.9-0.3-8-1.1c-2.2-0.8-3.9-2.3-5-4.2c-2.1-3.7-1.8-8.3-1.9-14.6v-39.9c0.1-6.3-0.1-10.8,1.9-14.6
					c1-1.9,2.8-3.4,5-4.2c2.2-0.8,4.8-1.1,8-1.1h29.8c3.3,0,5.9,0.3,8,1.1c0.3,0.1,0.5,0.2,0.8,0.4l0.3,0.1c1.6,0.8,3,2.1,3.9,3.7
					c2.1,3.7,1.8,8.3,1.9,14.6v15.1l9.9,10L424.8,413.3L424.8,413.3z M419.8,413.3v-12.6l-9.9-10v-17.1c-0.1-6.4-0.1-10.1-1.3-12.2
					c-0.4-0.7-1.1-1.3-1.8-1.6c0.1,0.1,0,0-0.3-0.2c-0.1,0,0,0-0.1,0h0c-0.1-0.1-0.3-0.1-0.1-0.1c-1.3-0.5-3.3-0.8-6.3-0.8h-29.8
					c-3,0-5,0.3-6.3,0.8c-1,0.3-1.8,1-2.4,1.9c-1.2,2.1-1.2,5.8-1.3,12.2v39.8c0.1,6.4,0.1,10.1,1.3,12.2c0.5,0.9,1.4,1.6,2.4,1.9
					c1.3,0.5,3.3,0.8,6.3,0.8h39.8c3,0,5-0.3,6.3-0.8c1-0.3,1.8-1,2.3-1.9C419.7,423.3,419.7,419.6,419.8,413.3L419.8,413.3z"/>
				
					<rect id="rect289" x="388.8" y="448.8" transform="matrix(-2.535182e-06 -1 1 -2.535182e-06 -32.01 811.8625)" class="st0" width="2.2" height="-53.6"/>
				
					<rect id="rect291" x="376.4" y="393.2" transform="matrix(-2.535182e-06 -1 1 -2.535182e-06 3.9083 786.863)" class="st0" width="37.9" height="-3.5"/>
				
					<rect id="rect295" x="369.1" y="399.2" transform="matrix(-2.535182e-06 -1 1 -2.535182e-06 -9.3245 785.4891)" class="st0" width="37.9" height="-3.5"/>
				
					<rect id="rect297" x="361.8" y="393.2" transform="matrix(-2.535182e-06 -1 1 -2.535182e-06 -10.6985 772.2563)" class="st0" width="37.9" height="-3.5"/>
				
					<rect id="rect299" x="354.5" y="399.2" transform="matrix(-2.535182e-06 -1 1 -2.535182e-06 -23.9313 770.8823)" class="st0" width="37.9" height="-3.5"/>
				
					<rect id="rect301" x="347.2" y="393.5" transform="matrix(-2.535182e-06 -1 1 -2.535182e-06 -25.5766 757.9208)" class="st0" width="37.9" height="-3.5"/>
			</g>
		</g>
	</g>
</g>
</svg>
