<?xml version="1.0" encoding="UTF-8" standalone="no"?>
<!-- Created with Inkscape (http://www.inkscape.org/) -->

<svg
   width="96"
   height="96"
   id="svg4874"
   version="1.1"
   inkscape:version="1.2 (1:1.2+202206011327+fc4e4096c5)"
   viewBox="0 0 96 96.000001"
   sodipodi:docname="stager-icon.svg"
   inkscape:export-filename="stager-icon.png"
   inkscape:export-xdpi="240"
   inkscape:export-ydpi="240"
   xmlns:inkscape="http://www.inkscape.org/namespaces/inkscape"
   xmlns:sodipodi="http://sodipodi.sourceforge.net/DTD/sodipodi-0.dtd"
   xmlns="http://www.w3.org/2000/svg"
   xmlns:svg="http://www.w3.org/2000/svg"
   xmlns:rdf="http://www.w3.org/1999/02/22-rdf-syntax-ns#"
   xmlns:cc="http://creativecommons.org/ns#"
   xmlns:dc="http://purl.org/dc/elements/1.1/">
  <defs
     id="defs4876" />
  <sodipodi:namedview
     id="base"
     pagecolor="#ffffff"
     bordercolor="#666666"
     borderopacity="1.0"
     inkscape:pageopacity="0.0"
     inkscape:pageshadow="2"
     inkscape:zoom="3.5124995"
     inkscape:cx="-0.42704632"
     inkscape:cy="57.081859"
     inkscape:document-units="px"
     inkscape:current-layer="g4780"
     showgrid="true"
     showborder="true"
     fit-margin-top="0"
     fit-margin-left="0"
     fit-margin-right="0"
     fit-margin-bottom="0"
     inkscape:snap-bbox="true"
     inkscape:bbox-paths="true"
     inkscape:bbox-nodes="true"
     inkscape:snap-bbox-edge-midpoints="true"
     inkscape:snap-bbox-midpoints="true"
     inkscape:object-paths="true"
     inkscape:snap-intersection-paths="true"
     inkscape:object-nodes="true"
     inkscape:snap-smooth-nodes="true"
     inkscape:snap-midpoints="true"
     inkscape:snap-object-midpoints="true"
     inkscape:snap-center="true"
     showguides="true"
     inkscape:guide-bbox="true"
     inkscape:snap-global="true"
     inkscape:showpageshadow="0"
     inkscape:pagecheckerboard="0"
     inkscape:deskcolor="#d1d1d1"
     inkscape:window-width="1864"
     inkscape:window-height="1027"
     inkscape:window-x="0"
     inkscape:window-y="27"
     inkscape:window-maximized="1">
    <inkscape:grid
       type="xygrid"
       id="grid5451"
       empspacing="8" />
    <sodipodi:guide
       orientation="1,0"
       position="8,-8.0000001"
       id="guide4063"
       inkscape:locked="false" />
    <sodipodi:guide
       orientation="1,0"
       position="4,-8.0000001"
       id="guide4065"
       inkscape:locked="false" />
    <sodipodi:guide
       orientation="0,1"
       position="-8,88.000001"
       id="guide4067"
       inkscape:locked="false" />
    <sodipodi:guide
       orientation="0,1"
       position="-8,92.000001"
       id="guide4069"
       inkscape:locked="false" />
    <sodipodi:guide
       orientation="0,1"
       position="104,4"
       id="guide4071"
       inkscape:locked="false" />
    <sodipodi:guide
       orientation="0,1"
       position="-5,8.0000001"
       id="guide4073"
       inkscape:locked="false" />
    <sodipodi:guide
       orientation="1,0"
       position="88,-8.0000001"
       id="guide4077"
       inkscape:locked="false" />
    <sodipodi:guide
       orientation="0,1"
       position="-8,84.000001"
       id="guide4074"
       inkscape:locked="false" />
    <sodipodi:guide
       orientation="1,0"
       position="12,-8.0000001"
       id="guide4076"
       inkscape:locked="false" />
    <sodipodi:guide
       orientation="1,0"
       position="84,-8.0000001"
       id="guide4080"
       inkscape:locked="false" />
    <sodipodi:guide
       position="48,42.102926"
       orientation="1,0"
       id="guide4170"
       inkscape:locked="false" />
    <sodipodi:guide
       position="-8,48"
       orientation="0,1"
       id="guide4172"
       inkscape:locked="false" />
    <sodipodi:guide
       position="92,-8.0000001"
       orientation="1,0"
       id="guide4760"
       inkscape:locked="false" />
  </sodipodi:namedview>
  <metadata
     id="metadata4879">
    <rdf:RDF>
      <cc:Work
         rdf:about="">
        <dc:format>image/svg+xml</dc:format>
        <dc:type
           rdf:resource="http://purl.org/dc/dcmitype/StillImage" />
        <dc:title />
      </cc:Work>
    </rdf:RDF>
  </metadata>
  <g
     inkscape:label="Layer 1"
     inkscape:groupmode="layer"
     id="layer1"
     transform="translate(67.857146,-78.50504)">
    <g
       transform="matrix(0,-1,-1,0,373.50506,516.50504)"
       id="g4845"
       style="display:inline">
      <g
         inkscape:export-ydpi="90"
         inkscape:export-xdpi="90"
         inkscape:export-filename="next01.png"
         transform="matrix(-0.9996045,0,0,1,575.94296,-611.00001)"
         id="g4778"
         inkscape:label="Layer 1">
        <g
           transform="matrix(-1,0,0,1,575.99999,611)"
           id="g4780"
           style="display:inline">
          <rect
             style="color:#000000;display:inline;overflow:visible;visibility:visible;fill:none;stroke:none;stroke-width:4;marker:none;enable-background:accumulate"
             id="rect4782"
             width="96.037987"
             height="96"
             x="-438.00244"
             y="345.36221"
             transform="scale(-1,1)" />
          <rect
             style="fill:#808080;fill-opacity:1;stroke:none;stroke-width:2.12589;stroke-linecap:square"
             id="rect332"
             width="37.917225"
             height="3.5281634"
             x="-416.30109"
             y="-404.45209"
             transform="matrix(0,-1,-1,0,0,0)" />
          <path
             d="m 424.78463,413.27056 c -0.0697,6.25179 0.14418,10.8288 -1.92401,14.56597 a 9.3366533,9.3329603 0 0 1 -4.95168,4.17447 c -2.17263,0.82 -4.77273,1.10824 -8.03907,1.10824 h -39.77278 c -3.2713,0 -5.86147,-0.28824 -8.03907,-1.10824 -2.18251,-0.815 -3.92753,-2.30092 -4.96163,-4.17447 -2.0682,-3.73717 -1.83949,-8.31418 -1.9141,-14.56597 v -39.85642 c 0.0745,-6.2518 -0.14917,-10.82882 1.9141,-14.57096 1.02913,-1.86858 2.78409,-3.3545 4.96163,-4.17448 2.1776,-0.77526 4.77274,-1.0635 8.03907,-1.0635 h 29.82959 c 3.27133,0 5.86149,0.28824 8.03907,1.10824 0.27334,0.0994 0.51705,0.23853 0.76562,0.36773 l 0.28327,0.1342 a 9.1377898,9.1341753 0 0 1 3.91264,3.66757 c 2.06821,3.74214 1.83951,8.31418 1.91407,14.57094 v 15.12258 l 9.94318,10.04363 v 14.66039 z m -4.97157,0 V 400.6477 l -9.94319,-10.03865 v -17.12533 c -0.0745,-6.37107 -0.1292,-10.09829 -1.29266,-12.20044 a 4.2109402,4.2092745 0 0 0 -1.82454,-1.63999 c 0.14918,0.0795 -0.0498,0 -0.31805,-0.15396 -0.0845,-0.0498 -0.0102,-0.004 -0.0597,-0.0498 h -0.0102 c -0.10943,-0.0547 -0.2634,-0.1292 -0.14917,-0.0894 -1.32247,-0.49696 -3.31112,-0.78519 -6.28907,-0.78519 h -29.8296 c -2.97799,0 -4.96163,0.28823 -6.29403,0.78519 a 4.4147755,4.4130291 0 0 0 -2.35654,1.91828 c -1.16335,2.10713 -1.21801,5.82938 -1.2926,12.20541 v 39.77689 c 0.0745,6.37107 0.12921,10.09829 1.2926,12.20045 a 4.4048324,4.40309 0 0 0 2.35654,1.91827 c 1.32744,0.49696 3.31604,0.78023 6.29403,0.78023 h 39.77277 c 2.97795,0 4.96661,-0.28824 6.29405,-0.7852 a 4.360088,4.3583634 0 0 0 2.34654,-1.92325 c 1.16339,-2.10712 1.22799,-5.83434 1.30261,-12.18054 z"
             style="line-height:normal;font-variant-ligatures:none;font-variant-position:normal;font-variant-caps:normal;font-variant-numeric:normal;font-variant-alternates:normal;font-feature-settings:normal;text-indent:0;text-align:start;text-decoration-line:none;text-decoration-style:solid;text-decoration-color:#000000;text-transform:none;shape-padding:0;isolation:auto;mix-blend-mode:normal;stroke-width:4.97061;marker:none"
             color="#000000"
             font-weight="400"
             font-family="sans-serif"
             white-space="normal"
             overflow="visible"
             fill="#808080"
             id="path207" />
          <rect
             style="fill:#808080;fill-opacity:1;stroke:none;stroke-width:2.12589;stroke-linecap:square"
             id="rect289"
             width="53.668335"
             height="2.1633208"
             x="-416.75931"
             y="420.85458"
             transform="scale(-1,1)" />
          <rect
             style="fill:#808080;fill-opacity:1;stroke:none;stroke-width:2.12589;stroke-linecap:square"
             id="rect291"
             width="37.917225"
             height="3.5281634"
             x="-410.43597"
             y="-397.14868"
             transform="matrix(0,-1,-1,0,0,0)" />
          <rect
             style="fill:#808080;fill-opacity:1;stroke:none;stroke-width:2.12589;stroke-linecap:square"
             id="rect295"
             width="37.917225"
             height="3.5281634"
             x="-416.36542"
             y="-389.84531"
             transform="matrix(0,-1,-1,0,0,0)" />
          <rect
             style="fill:#808080;fill-opacity:1;stroke:none;stroke-width:2.12589;stroke-linecap:square"
             id="rect297"
             width="37.917225"
             height="3.5281634"
             x="-410.43597"
             y="-382.5419"
             transform="matrix(0,-1,-1,0,0,0)" />
          <rect
             style="fill:#808080;fill-opacity:1;stroke:none;stroke-width:2.12589;stroke-linecap:square"
             id="rect299"
             width="37.917225"
             height="3.5281634"
             x="-416.36542"
             y="-375.23853"
             transform="matrix(0,-1,-1,0,0,0)" />
          <rect
             style="fill:#808080;fill-opacity:1;stroke:none;stroke-width:2.12589;stroke-linecap:square"
             id="rect301"
             width="37.917225"
             height="3.5281634"
             x="-410.70731"
             y="-367.93512"
             transform="matrix(0,-1,-1,0,0,0)" />
        </g>
      </g>
    </g>
  </g>
</svg>
