<?xml version="1.0" encoding="utf-8"?>
<!-- Generator: Adobe Illustrator 28.3.0, SVG Export Plug-In . SVG Version: 6.00 Build 0)  -->
<svg version="1.1"
	 id="svg4874" xmlns:cc="http://creativecommons.org/ns#" xmlns:sodipodi="http://sodipodi.sourceforge.net/DTD/sodipodi-0.dtd" xmlns:svg="http://www.w3.org/2000/svg" xmlns:rdf="http://www.w3.org/1999/02/22-rdf-syntax-ns#" xmlns:inkscape="http://www.inkscape.org/namespaces/inkscape" xmlns:dc="http://purl.org/dc/elements/1.1/" inkscape:version="0.92.4 (5da689c313, 2019-01-14)"
	 xmlns="http://www.w3.org/2000/svg" xmlns:xlink="http://www.w3.org/1999/xlink" x="0px" y="0px" viewBox="0 0 96 96"
	 style="enable-background:new 0 0 96 96;" xml:space="preserve">
<style type="text/css">
	.st0{fill:#FFFFFF;stroke:#FFFFFF;stroke-miterlimit:10;}
	.st1{fill:#FFFFFF;stroke:#FFFFFF;stroke-width:4.5009;stroke-linecap:round;stroke-linejoin:round;}
	.st2{fill:#FFFFFF;stroke:#FFFFFF;stroke-width:4.4991;stroke-linejoin:round;stroke-miterlimit:3.9984;}
	.st3{fill:#FFFFFF;stroke:#FFFFFF;stroke-width:4;stroke-linecap:round;stroke-linejoin:round;}
	.st4{fill:#FFFFFF;stroke:#FFFFFF;stroke-width:4.0008;stroke-linejoin:round;}
</style>
<sodipodi:namedview  bordercolor="#666666" borderopacity="1.0" fit-margin-bottom="0" fit-margin-left="0" fit-margin-right="0" fit-margin-top="0" id="base" inkscape:bbox-nodes="true" inkscape:bbox-paths="true" inkscape:current-layer="g4780" inkscape:cx="72.007266" inkscape:cy="37.457135" inkscape:document-units="px" inkscape:guide-bbox="true" inkscape:object-nodes="true" inkscape:object-paths="true" inkscape:pageopacity="0.0" inkscape:pageshadow="2" inkscape:snap-bbox="true" inkscape:snap-bbox-edge-midpoints="true" inkscape:snap-bbox-midpoints="true" inkscape:snap-center="true" inkscape:snap-global="true" inkscape:snap-intersection-paths="true" inkscape:snap-midpoints="true" inkscape:snap-object-midpoints="true" inkscape:snap-smooth-nodes="true" inkscape:window-height="1051" inkscape:window-maximized="1" inkscape:window-width="1842" inkscape:window-x="2469" inkscape:window-y="-9" inkscape:zoom="2.7441403" pagecolor="#ffffff" showborder="true" showgrid="false" showguides="false">
	<inkscape:grid  empspacing="8" id="grid5451" type="xygrid"></inkscape:grid>
	<sodipodi:guide  id="guide4063" inkscape:locked="false" orientation="1,0" position="8,-8.0000001"></sodipodi:guide>
	<sodipodi:guide  id="guide4065" inkscape:locked="false" orientation="1,0" position="4,-8.0000001"></sodipodi:guide>
	<sodipodi:guide  id="guide4067" inkscape:locked="false" orientation="0,1" position="-8,88.000001"></sodipodi:guide>
	<sodipodi:guide  id="guide4069" inkscape:locked="false" orientation="0,1" position="-8,92.000001"></sodipodi:guide>
	<sodipodi:guide  id="guide4071" inkscape:locked="false" orientation="0,1" position="104,4"></sodipodi:guide>
	<sodipodi:guide  id="guide4073" inkscape:locked="false" orientation="0,1" position="-5,8.0000001"></sodipodi:guide>
	<sodipodi:guide  id="guide4075" inkscape:locked="false" orientation="1,0" position="92,-8.0000001"></sodipodi:guide>
	<sodipodi:guide  id="guide4077" inkscape:locked="false" orientation="1,0" position="88,-8.0000001"></sodipodi:guide>
	<sodipodi:guide  id="guide4074" inkscape:locked="false" orientation="0,1" position="-8,84.000001"></sodipodi:guide>
	<sodipodi:guide  id="guide4076" inkscape:locked="false" orientation="1,0" position="12,-8.0000001"></sodipodi:guide>
	<sodipodi:guide  id="guide4078" inkscape:locked="false" orientation="0,1" position="-5,12"></sodipodi:guide>
	<sodipodi:guide  id="guide4080" inkscape:locked="false" orientation="1,0" position="84,-9.0000001"></sodipodi:guide>
	<sodipodi:guide  id="guide4170" inkscape:locked="false" orientation="1,0" position="48,-8.0000001"></sodipodi:guide>
	<sodipodi:guide  id="guide4172" inkscape:locked="false" orientation="0,1" position="-8,48"></sodipodi:guide>
</sodipodi:namedview>
<g id="layer1" transform="translate(67.857146,-78.50504)" inkscape:groupmode="layer" inkscape:label="Layer 1">
	<g id="g4845" transform="matrix(0,-1,-1,0,373.50506,516.50504)">
		
			<g id="g4778" transform="matrix(-0.9996045,0,0,1,575.94296,-611.00001)" inkscape:export-filename="next01.png" inkscape:export-xdpi="90" inkscape:export-ydpi="90" inkscape:label="Layer 1">
			<g id="g4780" transform="matrix(-1,0,0,1,575.99999,611)">
				
					<rect id="rect4782" x="342" y="441.4" transform="matrix(-2.535182e-06 -1 1 -2.535182e-06 -3.3777 783.3467)" class="st0" width="96" height="-96"/>
				<g id="g4166" transform="translate(-2.3869983,-0.644535)">
					<path id="rect3353" class="st1" d="M398.1,411.4v-34.9c0-2-1.6-3.6-3.6-3.6h-37.2c-2,0-3.6,1.6-3.6,3.6v34.9
						c0,2,1.6,3.6,3.6,3.6h37.2C396.5,415.1,398.1,413.4,398.1,411.4z"/>
					<path id="path4155" inkscape:connector-curvature="0" sodipodi:nodetypes="cc" class="st2" d="M398.1,394h17.9"/>
					<path id="rect4157" inkscape:connector-curvature="0" class="st3" d="M426.5,418.7c0,1.2-0.9,2.1-2.1,2.1H423
						c-1.2,0-2.1-0.9-2.1-2.1v-17.2h5.5V418.7z M426.5,386.5h-5.5v-17.2c0-1.2,0.9-2.1,2.1-2.1h1.3c1.2,0,2.1,0.9,2.1,2.1V386.5z"/>
					<path id="rect4159" class="st4" d="M431.3,399.4v-10.7c0-1.2-1-2.1-2.1-2.1h-11c-1.2,0-2.1,1-2.1,2.1v10.7c0,1.2,1,2.1,2.1,2.1
						h11C430.3,401.5,431.3,400.5,431.3,399.4z"/>
					<path id="rect4161" class="st4" d="M380.2,402.8v-17.6c0-1.2-1-2.1-2.1-2.1h-13.5c-1.2,0-2.1,1-2.1,2.1v17.6
						c0,1.2,1,2.1,2.1,2.1h13.5C379.3,405,380.2,404,380.2,402.8z"/>
				</g>
			</g>
		</g>
	</g>
</g>
</svg>
